<svg width="80" height="80" viewBox="0 0 80 80" fill="none" xmlns="http://www.w3.org/2000/svg">
<g clip-path="url(#clip0_126_179)">
<path d="M13.8344 15.9414H10.5867L11.0287 12.3521H14.4505C15.9772 12.3521 16.7473 13.0205 16.6134 14.0699V14.1033C16.4594 15.3732 15.3612 15.9414 13.8344 15.9414ZM16.6603 19.798V19.7579C16.8009 18.6216 15.9906 17.9466 14.1023 17.9466H10.339L9.88363 21.6495H13.8277C15.4482 21.6495 16.513 21.0145 16.6603 19.798ZM48.8828 21.9369C49.7408 21.8867 50.5519 21.5291 51.167 20.9299C51.7821 20.3307 52.1599 19.5301 52.231 18.6751V18.6417C52.4854 16.6699 51.2533 15.3732 49.6864 15.3732C48.8212 15.4018 47.9979 15.7523 47.3784 16.3559C46.7589 16.9594 46.3879 17.7723 46.3382 18.635V18.6684C46.1039 20.6469 47.2958 21.9369 48.8828 21.9369ZM37.0773 21.9369C37.9425 21.9083 38.7657 21.5578 39.3852 20.9542C40.0047 20.3507 40.3757 19.5378 40.4254 18.6751V18.6417C40.6665 16.6699 39.4946 15.3799 37.9076 15.3799C37.05 15.4315 36.2398 15.7895 35.6249 16.3884C35.0101 16.9874 34.6319 17.7872 34.5595 18.6417V18.6751C34.2581 20.6268 35.4902 21.9369 37.0773 21.9369V21.9369ZM30.4546 33.0055L30.1935 35.1042H49.0368C50.453 35.1334 51.8553 34.8212 53.1248 34.194C54.3943 33.5668 55.4935 32.6432 56.3291 31.5016L58.646 35.7592C58.747 35.9466 58.9026 36.0989 59.0923 36.196C59.2819 36.293 59.4967 36.3303 59.708 36.3027C59.9194 36.2752 60.1173 36.1841 60.2757 36.0417C60.434 35.8993 60.5453 35.7122 60.5946 35.5052L65.3356 14.7851L67.5521 39.8832C67.5755 40.1502 67.6856 40.4023 67.8657 40.601C68.0459 40.7998 68.2861 40.9344 68.5499 40.9843C68.8137 41.0343 69.0867 40.9968 69.3272 40.8777C69.5677 40.7586 69.7627 40.5643 69.8824 40.3244L73.4448 32.972C74.1144 34.0014 75.1591 35.1243 76.7394 35.1243H77.9648V77.8413H2.00879V2.00537H77.9648V33.0055H76.7394C75.7885 33.0055 75.0586 31.6018 74.6702 30.8465C74.5381 30.5394 74.3547 30.2569 74.1278 30.0111C74.0113 29.8966 73.8691 29.8115 73.7131 29.7627C73.5571 29.7138 73.3917 29.7028 73.2305 29.7303C73.0692 29.7558 72.9161 29.8186 72.7836 29.9138C72.651 30.009 72.5426 30.1338 72.4671 30.2784L69.3668 36.8955L66.9628 10.514C66.9877 10.1595 66.8704 9.8096 66.6368 9.54136C66.4032 9.27311 66.0725 9.10847 65.7173 9.08366C65.3621 9.05884 65.0116 9.17588 64.7428 9.40902C64.4741 9.64217 64.3091 9.97233 64.2843 10.3269L59.1616 32.3838L57.3268 29.0018C57.257 28.8737 57.1615 28.7613 57.0463 28.6716C56.9311 28.5819 56.7987 28.5168 56.6572 28.4804C56.5162 28.446 56.3695 28.4413 56.2265 28.4666C56.0835 28.4919 55.9474 28.5467 55.8269 28.6275C55.5917 28.8037 55.4013 29.0326 55.2711 29.2959C54.6702 30.4312 53.7686 31.38 52.6646 32.0389C51.5605 32.6977 50.2964 33.0413 49.01 33.0322L30.4546 33.0055ZM48.0726 23.9621C48.7963 23.952 49.5078 23.7748 50.1515 23.4443C50.7951 23.1138 51.3533 22.639 51.7823 22.0572L51.5613 23.7482H53.905L55.1706 13.5686H52.8269L52.6327 15.146C52.3018 14.5839 51.8244 14.1217 51.2514 13.8087C50.6784 13.4956 50.0311 13.3434 49.3783 13.3681C46.9409 13.3681 44.4097 15.273 44.0213 18.655V18.6885C43.5727 22.0572 45.6753 23.9621 48.0726 23.9621ZM31.218 26.8362H33.555L34.1309 22.1574C34.4596 22.7225 34.9361 23.1878 35.5094 23.5033C36.0826 23.8188 36.7311 23.9728 37.3853 23.9487C39.8026 23.9487 42.3539 22.0371 42.7423 18.6617V18.6283C43.1575 15.2329 41.0549 13.3413 38.6576 13.3413C37.9339 13.3514 37.2223 13.5286 36.5787 13.8591C35.9351 14.1896 35.3769 14.6644 34.9478 15.2462L35.1554 13.5552H32.8519L31.218 26.8362ZM7.28547 23.7482H13.5465C16.5598 23.7482 18.7093 22.4582 19.0107 20.0453V20.0052C19.2383 18.1738 18.2473 17.2715 16.7339 16.7301C17.3491 16.4763 17.8857 16.0641 18.2892 15.5358C18.6927 15.0074 18.9486 14.3816 19.0308 13.7223V13.6822C19.0982 13.2857 19.0767 12.8793 18.9678 12.4921C18.859 12.1049 18.6655 11.7467 18.4013 11.4431C17.7317 10.6744 16.5531 10.2467 15.0063 10.2467H8.94614L7.28547 23.7482ZM30.6086 13.5686H28.2515L27.5417 19.3168C27.5175 19.99 27.2323 20.6275 26.7464 21.0951C26.2605 21.5626 25.6118 21.8237 24.9369 21.8232C23.5441 21.8232 22.861 20.9343 23.0552 19.3502L23.765 13.5686H21.428L20.6312 20.052C20.3432 22.4248 21.4816 23.9688 23.7851 23.9688C24.4544 23.959 25.1119 23.7917 25.7042 23.4805C26.2965 23.1692 26.8068 22.7228 27.1935 22.1775L26.9993 23.7549H29.3564L30.6086 13.5686Z" fill="#0079C8"/>
<path d="M0 0V79.853H80.0006V0H0ZM2.00889 77.821V2.00518H77.9649V33.0053H76.7395C75.7886 33.0053 75.0587 31.6016 74.6703 30.8464C74.5382 30.5392 74.3548 30.2567 74.1279 30.0109C74.0114 29.8964 73.8692 29.8113 73.7132 29.7625C73.5572 29.7137 73.3918 29.7026 73.2306 29.7301C73.0693 29.7556 72.9162 29.8184 72.7837 29.9136C72.6511 30.0088 72.5427 30.1337 72.4672 30.2782L69.3669 36.8953L66.9629 10.5138C66.9878 10.1593 66.8705 9.80941 66.6369 9.54117C66.4033 9.27292 66.0726 9.10828 65.7174 9.08347C65.3622 9.05865 65.0117 9.17569 64.7429 9.40883C64.4742 9.64198 64.3092 9.97214 64.2844 10.3267L59.1617 32.3837L57.3269 29.0016C57.2571 28.8735 57.1617 28.7611 57.0465 28.6714C56.9312 28.5817 56.7988 28.5166 56.6573 28.4802C56.5163 28.4458 56.3696 28.4411 56.2266 28.4664C56.0836 28.4917 55.9475 28.5465 55.827 28.6273C55.5918 28.8035 55.4014 29.0325 55.2712 29.2957C54.6703 30.431 53.7687 31.3798 52.6647 32.0387C51.5606 32.6975 50.2965 33.0411 49.0101 33.032H30.4547L30.1936 35.1308H49.0369C50.4531 35.16 51.8554 34.8477 53.1249 34.2206C54.3944 33.5934 55.4936 32.6698 56.3292 31.5281L58.6461 35.7858C58.7471 35.9731 58.9027 36.1255 59.0924 36.2225C59.282 36.3196 59.4968 36.3568 59.7081 36.3293C59.9195 36.3017 60.1175 36.2107 60.2758 36.0683C60.4341 35.9258 60.5454 35.7388 60.5947 35.5318L65.3357 14.8116L67.5522 39.9098C67.5756 40.1768 67.6857 40.4288 67.8658 40.6276C68.046 40.8264 68.2862 40.9609 68.55 41.0109C68.8138 41.0608 69.0868 41.0234 69.3273 40.9042C69.5678 40.7851 69.7628 40.5908 69.8825 40.3509L73.4449 32.9986C74.1145 34.0279 75.1592 35.1508 76.7395 35.1508H77.9649V77.8678L2.00889 77.821ZM48.0727 23.9619C48.7964 23.9518 49.5079 23.7746 50.1516 23.4441C50.7952 23.1136 51.3534 22.6388 51.7824 22.057L51.5614 23.748H53.9051L55.1707 13.5684H52.827L52.6328 15.1458C52.3019 14.5837 51.8245 14.1215 51.2515 13.8085C50.6785 13.4954 50.0312 13.3432 49.3784 13.3679C46.941 13.3679 44.4098 15.2728 44.0214 18.6549V18.6883C43.5728 22.057 45.6754 23.9619 48.0727 23.9619ZM46.345 18.6749V18.6415C46.3947 17.7788 46.7657 16.9659 47.3852 16.3624C48.0047 15.7588 48.828 15.4083 49.6932 15.3797C51.2601 15.3797 52.4922 16.6697 52.2511 18.6415V18.6749C52.1801 19.5299 51.8023 20.3305 51.1872 20.9297C50.5721 21.5289 49.761 21.8865 48.903 21.9367C47.2959 21.9367 46.104 20.6467 46.345 18.6749V18.6749ZM19.0309 13.7221V13.682C19.0983 13.2856 19.0768 12.8791 18.9679 12.4919C18.8591 12.1048 18.6656 11.7465 18.4014 11.4429C17.7318 10.6742 16.5532 10.2465 15.0064 10.2465H8.94624L7.28556 23.748H13.5466C16.5599 23.748 18.7094 22.458 19.0108 20.0451V20.005C19.2384 18.1736 18.2474 17.2713 16.734 16.7299C17.3492 16.4761 17.8858 16.064 18.2893 15.5356C18.6928 15.0072 18.9487 14.3814 19.0309 13.7221V13.7221ZM10.9953 12.3519H14.4171C15.9439 12.3519 16.7139 13.0203 16.58 14.0697V14.1031C16.4327 15.3396 15.3345 15.9412 13.8078 15.9412H10.5868L10.9953 12.3519ZM16.6336 19.7577V19.7978C16.4863 21.0143 15.4216 21.6493 13.8011 21.6493H9.88372L10.3391 17.9464H14.1091C15.984 17.9464 16.8077 18.6214 16.6671 19.7577H16.6336ZM30.6087 13.5684L29.3565 23.748H26.9994L27.1936 22.1706C26.8069 22.7159 26.2966 23.1623 25.7043 23.4736C25.112 23.7849 24.4545 23.9522 23.7852 23.9619C21.4817 23.9619 20.3433 22.4179 20.6313 20.0451L21.4281 13.5684H23.7651L23.0553 19.3834C22.8611 20.9675 23.5442 21.8565 24.937 21.8565C25.6119 21.8569 26.2606 21.5958 26.7465 21.1283C27.2324 20.6608 27.5176 20.0232 27.5418 19.35L28.2516 13.6018L30.6087 13.5684ZM34.1511 22.1706C34.4798 22.7357 34.9563 23.2009 35.5295 23.5165C36.1028 23.832 36.7513 23.986 37.4055 23.9619C39.8228 23.9619 42.3741 22.0503 42.7625 18.6749V18.6415C43.1777 15.2461 41.075 13.3545 38.6778 13.3545C37.954 13.3646 37.2425 13.5418 36.5989 13.8723C35.9553 14.2028 35.3971 14.6776 34.968 15.2594L35.1756 13.5684H32.852L31.2181 26.836H33.5551L34.1511 22.1706ZM34.5194 18.6749V18.6415C34.5918 17.787 34.9701 16.9872 35.5849 16.3882C36.1997 15.7893 37.01 15.4313 37.8675 15.3797C39.4545 15.3797 40.6264 16.6697 40.3853 18.6415V18.6749C40.3357 19.5376 39.9646 20.3505 39.3451 20.954C38.7256 21.5576 37.9024 21.9081 37.0372 21.9367C35.4903 21.9367 34.2582 20.6266 34.4993 18.6749H34.5194ZM30.6087 13.5684L29.3565 23.748H26.9994L27.1936 22.1706C26.8069 22.7159 26.2966 23.1623 25.7043 23.4736C25.112 23.7849 24.4545 23.9522 23.7852 23.9619C21.4817 23.9619 20.3433 22.4179 20.6313 20.0451L21.4281 13.5684H23.7651L23.0553 19.3834C22.8611 20.9675 23.5442 21.8565 24.937 21.8565C25.6119 21.8569 26.2606 21.5958 26.7465 21.1283C27.2324 20.6608 27.5176 20.0232 27.5418 19.35L28.2516 13.6018L30.6087 13.5684ZM48.0727 23.9619C48.7964 23.9518 49.5079 23.7746 50.1516 23.4441C50.7952 23.1136 51.3534 22.6388 51.7824 22.057L51.5614 23.748H53.9051L55.1707 13.5684H52.827L52.6328 15.1458C52.3019 14.5837 51.8245 14.1215 51.2515 13.8085C50.6785 13.4954 50.0312 13.3432 49.3784 13.3679C46.941 13.3679 44.4098 15.2728 44.0214 18.6549V18.6883C43.5728 22.057 45.6754 23.9619 48.0727 23.9619ZM46.345 18.6749V18.6415C46.3947 17.7788 46.7657 16.9659 47.3852 16.3624C48.0047 15.7588 48.828 15.4083 49.6932 15.3797C51.2601 15.3797 52.4922 16.6697 52.2511 18.6415V18.6749C52.1801 19.5299 51.8023 20.3305 51.1872 20.9297C50.5721 21.5289 49.761 21.8865 48.903 21.9367C47.2959 21.9367 46.104 20.6467 46.345 18.6749V18.6749ZM19.0108 20.0518V20.0117C19.2384 18.1803 18.2474 17.278 16.734 16.7366C17.3492 16.4828 17.8858 16.0706 18.2893 15.5422C18.6928 15.0139 18.9487 14.3881 19.0309 13.7288V13.6887C19.0983 13.2922 19.0768 12.8858 18.9679 12.4986C18.8591 12.1114 18.6656 11.7532 18.4014 11.4496C17.7318 10.6809 16.5532 10.2532 15.0064 10.2532H8.94624L7.28556 23.7547H13.5466C16.5599 23.748 18.7094 22.458 19.0108 20.0518ZM11.0288 12.3519H14.4506C15.9773 12.3519 16.7474 13.0203 16.6135 14.0697V14.1031C16.4662 15.3396 15.368 15.9412 13.8412 15.9412H10.5868L11.0288 12.3519ZM10.3592 17.9464H14.1292C16.0041 17.9464 16.8077 18.6148 16.6872 19.7577V19.7978C16.5398 21.0143 15.4751 21.6493 13.8546 21.6493H9.88372L10.3592 17.9464ZM34.1511 22.1706C34.4798 22.7357 34.9563 23.2009 35.5295 23.5165C36.1028 23.832 36.7513 23.986 37.4055 23.9619C39.8228 23.9619 42.3741 22.0503 42.7625 18.6749V18.6415C43.1777 15.2461 41.075 13.3545 38.6778 13.3545C37.954 13.3646 37.2425 13.5418 36.5989 13.8723C35.9553 14.2028 35.3971 14.6776 34.968 15.2594L35.1756 13.5684H32.852L31.2181 26.836H33.5551L34.1511 22.1706ZM34.5194 18.6749V18.6415C34.5918 17.787 34.9701 16.9872 35.5849 16.3882C36.1997 15.7893 37.01 15.4313 37.8675 15.3797C39.4545 15.3797 40.6264 16.6697 40.3853 18.6415V18.6749C40.3357 19.5376 39.9646 20.3505 39.3451 20.954C38.7256 21.5576 37.9024 21.9081 37.0372 21.9367C35.4903 21.9367 34.2582 20.6266 34.4993 18.6749H34.5194Z" fill="white"/>
</g>
<defs>
<clipPath id="clip0_126_179">
<rect width="80.0006" height="80" fill="white"/>
</clipPath>
</defs>
</svg>
